<mxfile host="app.diagrams.net" modified="2021-06-04T13:25:30.508Z" agent="5.0 (X11; Linux x86_64) AppleWebKit/537.36 (KHTML, like Gecko) Chrome/91.0.4472.77 Safari/537.36" etag="RW8nAyJz38sUFwV8NUca" version="14.7.6" type="github">
  <diagram id="IDdnRhWd4ric8Z5P6O-M" name="Page-1">
    <mxGraphModel dx="1886" dy="832" grid="1" gridSize="10" guides="1" tooltips="1" connect="1" arrows="1" fold="1" page="1" pageScale="1" pageWidth="850" pageHeight="1100" math="0" shadow="0">
      <root>
        <mxCell id="0" />
        <mxCell id="1" parent="0" />
        <mxCell id="ejr2YfxU7ED3KMRfpsEY-1" value="BD Relacional&lt;br&gt;&lt;br&gt;MySql&lt;br&gt;Ej.&amp;nbsp;&lt;br&gt;Base de datos de Codo a Codo" style="shape=cylinder3;whiteSpace=wrap;html=1;boundedLbl=1;backgroundOutline=1;size=15;" vertex="1" parent="1">
          <mxGeometry x="310" y="200" width="130" height="180" as="geometry" />
        </mxCell>
        <mxCell id="ejr2YfxU7ED3KMRfpsEY-2" value="BD No Relacional&lt;br&gt;&lt;br&gt;MongoDB" style="shape=cylinder3;whiteSpace=wrap;html=1;boundedLbl=1;backgroundOutline=1;size=15;" vertex="1" parent="1">
          <mxGeometry x="680" y="10" width="140" height="170" as="geometry" />
        </mxCell>
        <mxCell id="ejr2YfxU7ED3KMRfpsEY-4" value="Alumnos" style="swimlane;fontStyle=0;childLayout=stackLayout;horizontal=1;startSize=26;horizontalStack=0;resizeParent=1;resizeParentMax=0;resizeLast=0;collapsible=1;marginBottom=0;align=center;fontSize=14;" vertex="1" parent="1">
          <mxGeometry x="40" y="520" width="190" height="116" as="geometry">
            <mxRectangle x="50" y="400" width="90" height="26" as="alternateBounds" />
          </mxGeometry>
        </mxCell>
        <mxCell id="ejr2YfxU7ED3KMRfpsEY-5" value="IdAlumno PK" style="text;strokeColor=none;fillColor=none;spacingLeft=4;spacingRight=4;overflow=hidden;rotatable=0;points=[[0,0.5],[1,0.5]];portConstraint=eastwest;fontSize=12;" vertex="1" parent="ejr2YfxU7ED3KMRfpsEY-4">
          <mxGeometry y="26" width="190" height="30" as="geometry" />
        </mxCell>
        <mxCell id="ejr2YfxU7ED3KMRfpsEY-6" value="nombre" style="text;strokeColor=none;fillColor=none;spacingLeft=4;spacingRight=4;overflow=hidden;rotatable=0;points=[[0,0.5],[1,0.5]];portConstraint=eastwest;fontSize=12;" vertex="1" parent="ejr2YfxU7ED3KMRfpsEY-4">
          <mxGeometry y="56" width="190" height="30" as="geometry" />
        </mxCell>
        <mxCell id="ejr2YfxU7ED3KMRfpsEY-7" value="apellido" style="text;strokeColor=none;fillColor=none;spacingLeft=4;spacingRight=4;overflow=hidden;rotatable=0;points=[[0,0.5],[1,0.5]];portConstraint=eastwest;fontSize=12;" vertex="1" parent="ejr2YfxU7ED3KMRfpsEY-4">
          <mxGeometry y="86" width="190" height="30" as="geometry" />
        </mxCell>
        <mxCell id="ejr2YfxU7ED3KMRfpsEY-8" value="Profesores" style="swimlane;fontStyle=0;childLayout=stackLayout;horizontal=1;startSize=26;horizontalStack=0;resizeParent=1;resizeParentMax=0;resizeLast=0;collapsible=1;marginBottom=0;align=center;fontSize=14;" vertex="1" parent="1">
          <mxGeometry x="270" y="400" width="200" height="116" as="geometry" />
        </mxCell>
        <mxCell id="ejr2YfxU7ED3KMRfpsEY-23" value="" style="endArrow=none;html=1;entryX=0;entryY=0.5;entryDx=0;entryDy=0;" edge="1" parent="ejr2YfxU7ED3KMRfpsEY-8" target="ejr2YfxU7ED3KMRfpsEY-13">
          <mxGeometry width="50" height="50" relative="1" as="geometry">
            <mxPoint x="200" y="90" as="sourcePoint" />
            <mxPoint x="250" y="40" as="targetPoint" />
          </mxGeometry>
        </mxCell>
        <mxCell id="ejr2YfxU7ED3KMRfpsEY-9" value="idProfesor" style="text;strokeColor=none;fillColor=none;spacingLeft=4;spacingRight=4;overflow=hidden;rotatable=0;points=[[0,0.5],[1,0.5]];portConstraint=eastwest;fontSize=12;" vertex="1" parent="ejr2YfxU7ED3KMRfpsEY-8">
          <mxGeometry y="26" width="200" height="30" as="geometry" />
        </mxCell>
        <mxCell id="ejr2YfxU7ED3KMRfpsEY-10" value="nombre" style="text;strokeColor=none;fillColor=none;spacingLeft=4;spacingRight=4;overflow=hidden;rotatable=0;points=[[0,0.5],[1,0.5]];portConstraint=eastwest;fontSize=12;" vertex="1" parent="ejr2YfxU7ED3KMRfpsEY-8">
          <mxGeometry y="56" width="200" height="30" as="geometry" />
        </mxCell>
        <mxCell id="ejr2YfxU7ED3KMRfpsEY-11" value="apellido" style="text;strokeColor=none;fillColor=none;spacingLeft=4;spacingRight=4;overflow=hidden;rotatable=0;points=[[0,0.5],[1,0.5]];portConstraint=eastwest;fontSize=12;" vertex="1" parent="ejr2YfxU7ED3KMRfpsEY-8">
          <mxGeometry y="86" width="200" height="30" as="geometry" />
        </mxCell>
        <mxCell id="ejr2YfxU7ED3KMRfpsEY-12" value="Comisiones" style="swimlane;fontStyle=0;childLayout=stackLayout;horizontal=1;startSize=26;horizontalStack=0;resizeParent=1;resizeParentMax=0;resizeLast=0;collapsible=1;marginBottom=0;align=center;fontSize=14;" vertex="1" parent="1">
          <mxGeometry x="620" y="490" width="150" height="86" as="geometry" />
        </mxCell>
        <mxCell id="ejr2YfxU7ED3KMRfpsEY-13" value="IdComision" style="text;strokeColor=none;fillColor=none;spacingLeft=4;spacingRight=4;overflow=hidden;rotatable=0;points=[[0,0.5],[1,0.5]];portConstraint=eastwest;fontSize=12;" vertex="1" parent="ejr2YfxU7ED3KMRfpsEY-12">
          <mxGeometry y="26" width="150" height="30" as="geometry" />
        </mxCell>
        <mxCell id="ejr2YfxU7ED3KMRfpsEY-14" value="nombreComision" style="text;strokeColor=none;fillColor=none;spacingLeft=4;spacingRight=4;overflow=hidden;rotatable=0;points=[[0,0.5],[1,0.5]];portConstraint=eastwest;fontSize=12;" vertex="1" parent="ejr2YfxU7ED3KMRfpsEY-12">
          <mxGeometry y="56" width="150" height="30" as="geometry" />
        </mxCell>
        <mxCell id="ejr2YfxU7ED3KMRfpsEY-16" value="Comision 2122" style="swimlane;fontStyle=0;childLayout=stackLayout;horizontal=1;startSize=26;horizontalStack=0;resizeParent=1;resizeParentMax=0;resizeLast=0;collapsible=1;marginBottom=0;align=center;fontSize=14;" vertex="1" parent="1">
          <mxGeometry x="320" y="590" width="160" height="116" as="geometry" />
        </mxCell>
        <mxCell id="ejr2YfxU7ED3KMRfpsEY-17" value="idComision" style="text;strokeColor=none;fillColor=none;spacingLeft=4;spacingRight=4;overflow=hidden;rotatable=0;points=[[0,0.5],[1,0.5]];portConstraint=eastwest;fontSize=12;" vertex="1" parent="ejr2YfxU7ED3KMRfpsEY-16">
          <mxGeometry y="26" width="160" height="30" as="geometry" />
        </mxCell>
        <mxCell id="ejr2YfxU7ED3KMRfpsEY-18" value="NombreComision" style="text;strokeColor=none;fillColor=none;spacingLeft=4;spacingRight=4;overflow=hidden;rotatable=0;points=[[0,0.5],[1,0.5]];portConstraint=eastwest;fontSize=12;" vertex="1" parent="ejr2YfxU7ED3KMRfpsEY-16">
          <mxGeometry y="56" width="160" height="30" as="geometry" />
        </mxCell>
        <mxCell id="ejr2YfxU7ED3KMRfpsEY-19" value="Item 3" style="text;strokeColor=none;fillColor=none;spacingLeft=4;spacingRight=4;overflow=hidden;rotatable=0;points=[[0,0.5],[1,0.5]];portConstraint=eastwest;fontSize=12;" vertex="1" parent="ejr2YfxU7ED3KMRfpsEY-16">
          <mxGeometry y="86" width="160" height="30" as="geometry" />
        </mxCell>
        <mxCell id="ejr2YfxU7ED3KMRfpsEY-24" value="" style="endArrow=none;html=1;exitX=0.413;exitY=-0.052;exitDx=0;exitDy=0;exitPerimeter=0;entryX=0.575;entryY=1.167;entryDx=0;entryDy=0;entryPerimeter=0;" edge="1" parent="1" source="ejr2YfxU7ED3KMRfpsEY-16" target="ejr2YfxU7ED3KMRfpsEY-11">
          <mxGeometry width="50" height="50" relative="1" as="geometry">
            <mxPoint x="370" y="550" as="sourcePoint" />
            <mxPoint x="420" y="500" as="targetPoint" />
          </mxGeometry>
        </mxCell>
        <mxCell id="ejr2YfxU7ED3KMRfpsEY-25" value="" style="endArrow=none;html=1;entryX=0.547;entryY=1.133;entryDx=0;entryDy=0;entryPerimeter=0;exitX=1.019;exitY=-0.2;exitDx=0;exitDy=0;exitPerimeter=0;" edge="1" parent="1" source="ejr2YfxU7ED3KMRfpsEY-19" target="ejr2YfxU7ED3KMRfpsEY-14">
          <mxGeometry width="50" height="50" relative="1" as="geometry">
            <mxPoint x="450" y="680" as="sourcePoint" />
            <mxPoint x="500" y="630" as="targetPoint" />
          </mxGeometry>
        </mxCell>
        <mxCell id="ejr2YfxU7ED3KMRfpsEY-26" value="" style="endArrow=none;html=1;entryX=0;entryY=0.5;entryDx=0;entryDy=0;exitX=1.016;exitY=-0.1;exitDx=0;exitDy=0;exitPerimeter=0;" edge="1" parent="1" source="ejr2YfxU7ED3KMRfpsEY-6" target="ejr2YfxU7ED3KMRfpsEY-18">
          <mxGeometry width="50" height="50" relative="1" as="geometry">
            <mxPoint x="400" y="450" as="sourcePoint" />
            <mxPoint x="450" y="400" as="targetPoint" />
          </mxGeometry>
        </mxCell>
        <mxCell id="ejr2YfxU7ED3KMRfpsEY-27" value="" style="endArrow=none;html=1;entryX=0;entryY=0.167;entryDx=0;entryDy=0;entryPerimeter=0;exitX=1;exitY=0.5;exitDx=0;exitDy=0;" edge="1" parent="1" source="ejr2YfxU7ED3KMRfpsEY-5" target="ejr2YfxU7ED3KMRfpsEY-14">
          <mxGeometry width="50" height="50" relative="1" as="geometry">
            <mxPoint x="400" y="450" as="sourcePoint" />
            <mxPoint x="450" y="400" as="targetPoint" />
          </mxGeometry>
        </mxCell>
      </root>
    </mxGraphModel>
  </diagram>
</mxfile>
